<?xml version="1.0" encoding="utf-8"?>
<!-- Generator: Adobe Illustrator 24.0.0, SVG Export Plug-In . SVG Version: 6.00 Build 0)  -->
<svg version="1.1" id="Layer_1" xmlns="http://www.w3.org/2000/svg" xmlns:xlink="http://www.w3.org/1999/xlink" x="0px" y="0px"
	 viewBox="0 0 64 64" style="enable-background:new 0 0 64 64;" xml:space="preserve">
<style type="text/css">
	.st0{fill:#BECDE8;}
	.st1{fill:#4468B2;}
</style>
<path class="st0" d="M61.3,38.79c-1.47-1.85-4.16-2.18-6.02-0.72l-12.14,9.51c-0.6,0.47-1.35,0.73-2.11,0.73l-8.7,0.01
	c-1.18,0-2.14-0.96-2.15-2.14c0-1.18,0.96-2.14,2.14-2.15l7.29-0.01c2.37,0,4.28-1.92,4.28-4.29c0-2.37-1.92-4.29-4.29-4.28
	l-8.07,0.01l-5.51,0.01l-3.1,0l-1.13,0c-2.3,0-4.54,0.78-6.35,2.2L9.5,42.34c-0.37,0.29-0.44,0.83-0.14,1.21l11.57,14.63
	c0.16,0.2,0.41,0.32,0.67,0.33l13.99,0.12l3.87,0.03c2.35,0.02,4.63-0.76,6.47-2.22L60.6,44.82C62.46,43.35,62.78,40.65,61.3,38.79z
	"/>
<path class="st1" d="M5.99,46.2c-0.29-0.37-0.83-0.43-1.2-0.14L2.1,48.19c-0.37,0.29-0.43,0.83-0.14,1.2l11.29,14.28
	c0.29,0.37,0.83,0.43,1.2,0.14l2.69-2.13c0.37-0.29,0.43-0.83,0.14-1.2L5.99,46.2z"/>
<path class="st1" d="M38.95,0c-8.34,0-15.1,6.76-15.1,15.1c0,8.34,6.76,15.1,15.1,15.1c8.34,0,15.1-6.76,15.1-15.1
	C54.05,6.76,47.29,0,38.95,0z M38.11,12.2l3.49,1.79c2.08,1.07,3.19,3.27,2.81,5.6c-0.29,1.81-1.43,3.25-3.02,3.94v0.46
	c0,1.18-0.96,2.14-2.14,2.14s-2.14-0.96-2.14-2.14v-0.33c-1.68-0.56-3.08-1.79-3.82-3.48c-0.47-1.09,0.03-2.35,1.11-2.82
	c1.09-0.47,2.35,0.03,2.82,1.11c0.35,0.82,1.19,1.31,2.07,1.23c0.67-0.1,0.84-0.48,0.89-0.79c0.03-0.18,0.07-0.79-0.54-1.11
	l-3.49-1.79c-2.1-1.08-3.22-3.38-2.78-5.71c0.38-2.05,1.81-3.58,3.74-4.1V5.87c0-1.18,0.96-2.14,2.14-2.14s2.14,0.96,2.14,2.14v0.79
	c1.34,0.65,2.44,1.73,3.06,3.15c0.47,1.09-0.03,2.35-1.11,2.82c-1.09,0.47-2.35-0.02-2.82-1.11c-0.35-0.82-1.21-1.32-2.07-1.23
	c-0.64,0.07-0.82,0.52-0.87,0.79C37.53,11.31,37.5,11.88,38.11,12.2z"/>
</svg>
