<?xml version="1.0" encoding="utf-8"?>
<!-- Generator: Adobe Illustrator 24.0.0, SVG Export Plug-In . SVG Version: 6.00 Build 0)  -->
<svg version="1.1" id="Layer_1" xmlns="http://www.w3.org/2000/svg" xmlns:xlink="http://www.w3.org/1999/xlink" x="0px" y="0px"
	 viewBox="0 0 64 64" style="enable-background:new 0 0 64 64;" xml:space="preserve">
<style type="text/css">
	.st0{fill:#BFCDE8;}
	.st1{fill:#4669B2;}
</style>
<path class="st0" d="M29.68,16.8h12.04c0.21,0,0.42-0.08,0.57-0.23l8.91-8.91c0.5-0.5,0.15-1.37-0.57-1.37H38.6
	c-0.21,0-0.42,0.08-0.57,0.23l-8.91,8.91C28.61,15.94,28.97,16.8,29.68,16.8z"/>
<path class="st1" d="M63.2,20.8H0.8c-0.44,0-0.8,0.36-0.8,0.8v32.91c0,1.77,1.43,3.2,3.2,3.2h57.6c1.77,0,3.2-1.43,3.2-3.2V21.6
	C64,21.16,63.64,20.8,63.2,20.8z M57.6,46c1.1,0,2,0.9,2,2c0,1.1-0.9,2-2,2H8c-1.1,0-2-0.9-2-2c0-1.1,0.9-2,2-2h10.8v-8.91H8
	c-1.1,0-2-0.9-2-2c0-1.1,0.9-2,2-2h49.6c1.1,0,2,0.9,2,2c0,1.1-0.9,2-2,2h-14V46H57.6z"/>
<rect x="22.8" y="37.09" class="st0" width="16.8" height="8.91"/>
<path class="st0" d="M10.72,6.29H3.2C1.43,6.29,0,7.72,0,9.49v7.31h1.8c0.21,0,0.42-0.08,0.57-0.23l8.91-8.91
	C11.79,7.15,11.43,6.29,10.72,6.29z"/>
<path class="st0" d="M30.68,6.29H18.64c-0.21,0-0.42,0.08-0.57,0.23l-8.91,8.91c-0.5,0.5-0.15,1.37,0.57,1.37h12.04
	c0.21,0,0.42-0.08,0.57-0.23l8.91-8.91C31.75,7.15,31.39,6.29,30.68,6.29z"/>
<path class="st0" d="M60.8,6.29h-2.58l-9.15,9.15c-0.5,0.5-0.15,1.37,0.57,1.37H63.2c0.44,0,0.8-0.36,0.8-0.8V9.49
	C64,7.72,62.57,6.29,60.8,6.29z"/>
</svg>
