<?xml version="1.0" encoding="utf-8"?>
<!-- Generator: Adobe Illustrator 24.0.0, SVG Export Plug-In . SVG Version: 6.00 Build 0)  -->
<svg version="1.1" id="Layer_1" xmlns="http://www.w3.org/2000/svg" xmlns:xlink="http://www.w3.org/1999/xlink" x="0px" y="0px"
	 viewBox="0 0 64 64" style="enable-background:new 0 0 64 64;" xml:space="preserve">
<style type="text/css">
	.st0{fill:#BFCDE8;}
	.st1{fill:#4669B2;}
</style>
<path class="st0" d="M50.87,29.54h-2.46c-1.36,0-2.46,1.1-2.46,2.46c0,1.36,1.1,2.46,2.46,2.46h2.46c1.36,0,2.46-1.1,2.46-2.46
	C53.33,30.64,52.23,29.54,50.87,29.54z M32,45.95c-1.36,0-2.46,1.1-2.46,2.46v2.46c0,1.36,1.1,2.46,2.46,2.46
	c1.36,0,2.46-1.1,2.46-2.46v-2.46C34.46,47.05,33.36,45.95,32,45.95z M15.59,29.54h-2.46c-1.36,0-2.46,1.1-2.46,2.46
	c0,1.36,1.1,2.46,2.46,2.46h2.46c1.36,0,2.46-1.1,2.46-2.46C18.05,30.64,16.95,29.54,15.59,29.54z M32,10.67
	c-1.36,0-2.46,1.1-2.46,2.46v2.46c0,1.36,1.1,2.46,2.46,2.46c1.36,0,2.46-1.1,2.46-2.46v-2.46C34.46,11.77,33.36,10.67,32,10.67z"/>
<path class="st1" d="M32,0C14.33,0,0,14.33,0,32c0,17.67,14.33,32,32,32c17.67,0,32-14.33,32-32C64,14.33,49.67,0,32,0z M32,55.79
	C18.88,55.79,8.21,45.12,8.21,32C8.21,18.88,18.88,8.21,32,8.21c13.12,0,23.79,10.67,23.79,23.79C55.79,45.12,45.12,55.79,32,55.79z
	"/>
<path class="st1" d="M42.73,18.32l-9.7,9.7C32.7,27.94,32.36,27.9,32,27.9c-0.52,0-1.01,0.1-1.48,0.25l-7.51-7.51
	c-0.96-0.96-2.52-0.96-3.48,0c-0.96,0.96-0.96,2.52,0,3.48l7.67,7.67c-0.07,0.33-0.11,0.68-0.11,1.04c0,2.72,2.2,4.92,4.92,4.92
	c2.72,0,4.92-2.2,4.92-4.92c0-0.52-0.1-1.01-0.25-1.48l9.54-9.54c0.96-0.96,0.96-2.52,0-3.48C45.25,17.35,43.69,17.35,42.73,18.32z"
	/>
</svg>
