<?xml version="1.0" encoding="utf-8"?>
<!-- Generator: Adobe Illustrator 24.0.0, SVG Export Plug-In . SVG Version: 6.00 Build 0)  -->
<svg version="1.1" id="Layer_1" xmlns="http://www.w3.org/2000/svg" xmlns:xlink="http://www.w3.org/1999/xlink" x="0px" y="0px"
	 viewBox="0 0 64 64" style="enable-background:new 0 0 64 64;" xml:space="preserve">
<style type="text/css">
	.st0{fill:#BFCDE8;}
	.st1{fill:#4669B2;}
</style>
<path class="st0" d="M25.81,38.37c1.5,0,2.72-1.22,2.72-2.72s-1.22-2.72-2.72-2.72s-2.72,1.22-2.72,2.72S24.31,38.37,25.81,38.37z"
	/>
<circle class="st0" cx="32.82" cy="5.31" r="5.31"/>
<path class="st1" d="M52.43,18.24H49.5L40.1,7.9c-0.58,1.62-1.65,2.99-3.07,3.91l5.84,6.43H22.76l5.84-6.43
	c-1.42-0.92-2.49-2.3-3.07-3.91l-9.4,10.34h-4.56c-1.81,0-3.27,1.46-3.27,3.27v39.22c0,1.81,1.46,3.27,3.27,3.27h40.86
	c1.81,0,3.27-1.46,3.27-3.27V21.51C55.7,19.7,54.23,18.24,52.43,18.24z M49.16,57.46H14.84V24.78h34.32V57.46z"/>
<path class="st0" d="M21.39,52.56h22.86c1.56,0,2.48-1.74,1.6-3.03l-7.36-10.76c-0.67-0.97-2.11-0.97-2.76,0.02l-6.96,10.44
	l-2.78-5.01c-0.62-1.11-2.21-1.15-2.88-0.06l-3.36,5.45C18.95,50.9,19.88,52.56,21.39,52.56z"/>
</svg>
